<svg xmlns="http://www.w3.org/2000/svg" width="125" height="44" viewBox="0 0 125 44">
    <g fill="none" fill-rule="evenodd">
        <path fill="#313434" d="M77.764 41.19c-.067-.14-.28-.394-.28-.394s-6.423-7.623-6.66-7.83a2.697 2.697 0 0 0-1.773-.667c-.224 0-.439.03-.645.082-.237.062-10.492 3.068-10.492 3.068s-.289.084-.507.084c-.71 0-1.286-.576-1.286-1.286 0-.238.068-.457.18-.648l.139-.248 4.74-8.445c.125-.225.612-1.225.709-1.501a2.69 2.69 0 0 0-.362-2.462c-.11-.154-.454-.586-.502-.659l-5.6-7.334s-.063-.091-.081-.124c-.093-.168-.214-.466-.214-.737 0-.71.576-1.286 1.286-1.286.076 0 .827.074.827.074s10.752 1.092 10.93 1.092c.456 0 .88-.123 1.258-.322l.068-.037c.115-.064.224-.134.328-.213.006-.006.012-.008.02-.014.014-.011.036-.032.055-.049.087-.072.17-.148.25-.23.084-.087 2.6-3.097 3.897-4.673 1.122-1.362 2.172-2.65 2.576-3.184.063-.083.267-.339.346-.459.12-.182.262-.458.254-.753-.021-.71-.576-1.287-1.287-1.287h-27.36a2.713 2.713 0 0 0-2.705 2.705v36.93a2.712 2.712 0 0 0 2.705 2.704h28.056c.71 0 1.286-.576 1.286-1.286 0-.222-.026-.337-.156-.61M121.523.711h-9.369a2.71 2.71 0 0 0-2.702 2.705l.01 11.338v.909c0 .71-.576 1.286-1.286 1.286l-.012-.002-.01.002c-.115 0-.225-.02-.33-.05-.009-.002-.015-.005-.023-.008-.064-.018-.128-.037-.188-.065a.598.598 0 0 1-.077-.053c-.14-.081-.26-.19-.36-.316-.024-.023-.052-.05-.065-.066-.252-.296-.417-.593-.836-1.192-2.166-3.094-8.21-12.584-8.323-12.76A3.734 3.734 0 0 0 94.875.715c-.186-.003-.891-.004-1.047-.004h-9.429a2.712 2.712 0 0 0-2.704 2.705V13.84a2.72 2.72 0 0 0 1.656 2.503c.191.082 9.911 5.093 9.911 5.093.943.542 1.07 1.506.34 2.22-.297.291-2.032.839-2.032.839s-8.006 2.986-8.15 3.044a2.729 2.729 0 0 0-1.725 2.538c0 .155.004.758 0 .908v.916l.098 8.374s.074 1.016.236 1.332c.468.911 1.283 1.444 2.37 1.444h9.369a2.744 2.744 0 0 0 2.73-2.705l.071-11.083c0-.476.263-.887.648-1.11.023-.014.047-.026.071-.038.06-.03.25-.096.283-.104.092-.021.187-.034.285-.034a1.286 1.286 0 0 1 .342.052c.103.028.2.069.291.121.012.006.048.025.055.03.208.132.483.555.486.558l.405.595 8.348 11.587c.1.127.217.25.339.372a3.733 3.733 0 0 0 2.92 1.746c.23.015.977.013 1.112.013h9.37a2.713 2.713 0 0 0 2.704-2.705V3.416a2.713 2.713 0 0 0-2.705-2.705M43.84 1.149c-.304-.304-.469-.401-1.297-.401H31.38c-.222 0-.435.034-.642.084-.932.156-1.496.704-2.284 2.292 0 0-3.286 5.864-4.258 7.881-.15.311-.368.863-.797 1.127a1.3 1.3 0 0 1-.695.187c-.374 0-.648-.156-.844-.345-.286-.276-.533-.86-.676-1.165-.904-1.934-3.809-7.645-3.809-7.645-.627-1.23-.965-1.877-1.849-2.183a2.712 2.712 0 0 0-1.096-.233H1.949c-.71 0-1.286.576-1.286 1.287 0 .412.232.78.358 1.001 0 0 6.52 10.225 9.988 15.627 1.224 1.908 2.722 4.032 2.907 4.518.224.591.287 1.202.213 1.788.024.202.036.419.036.666v14.748a2.712 2.712 0 0 0 2.705 2.704h11.4a2.712 2.712 0 0 0 2.705-2.704V25.635c0-.308.005-.576.023-.828a3.728 3.728 0 0 1 .444-2.085c.085-.155 1.295-2.033 2.655-4.191 3.523-5.594 9.73-15.481 9.73-15.481.109-.176.189-.347.246-.512.103-.265.1-.522.1-.531.004-.331-.173-.698-.333-.858"/>
        <path fill="#E8D619" d="M93.262 21.436s-9.72-5.011-9.911-5.093a2.719 2.719 0 0 1-1.656-2.503c0-.16-.621-12.348-.621-12.365 0-.72-.584-1.304-1.305-1.304-.411 0-.773.194-1.012.491-.127.146-.79.911-1.679 1.94a1.85 1.85 0 0 1-.107.185c-.079.121-.283.377-.346.46-.404.534-1.454 1.822-2.576 3.184a547.821 547.821 0 0 1-3.898 4.674 3.006 3.006 0 0 1-.249.229c-.019.017-.04.038-.055.05-.008.005-.014.007-.02.013-.104.079-.213.149-.328.213l-.068.037a2.692 2.692 0 0 1-1.258.322c-.178 0-10.93-1.092-10.93-1.092s-.751-.074-.827-.074c-.71 0-1.286.576-1.286 1.286 0 .271.121.569.214.737.018.033.08.124.08.124l5.6 7.334c.049.073.393.505.503.659a2.69 2.69 0 0 1 .362 2.462c-.097.276-.584 1.276-.71 1.501l-4.739 8.445-.139.248c-.112.191-.18.41-.18.648 0 .71.576 1.286 1.286 1.286.218 0 .507-.084.507-.084s10.255-3.006 10.492-3.068c.206-.052.421-.082.645-.082a2.681 2.681 0 0 1 1.773.668c.237.206 7.741 9.318 8.067 9.642.132.131.457.432.619.557.215.165.535.35.886.331.561-.028 1.037-.357 1.22-.855.084-.159.157-1.107.181-1.535.006-.094.01-.326.012-.651l-.016-.18-.098-8.376v-.915c.004-.15 0-.753 0-.908 0-1.153.714-2.139 1.725-2.538.144-.058 8.15-3.044 8.15-3.044s1.735-.548 2.032-.838c.73-.715.603-1.679-.34-2.221"/>
    </g>
</svg>
