<svg width="116px" height="40px" viewBox="0 0 116 40" version="1.1" xmlns="http://www.w3.org/2000/svg" xmlns:xlink="http://www.w3.org/1999/xlink">
    <!-- Generator: Sketch 55.2 (78181) - https://sketchapp.com -->
    <title>yen_footer</title>
    <desc>Created with Sketch.</desc>
    <g id="Page-1" stroke="none" stroke-width="1" fill="none" fill-rule="evenodd">
        <g id="Artboard-Copy-2" transform="translate(-100.000000, -88.000000)" fill="#FFFFFF">
            <g id="yen_footer" transform="translate(100.000000, 88.000000)">
                <path d="M72.2825,37.949375 C72.219375,37.8175 72.019375,37.57875 72.019375,37.57875 C72.019375,37.57875 65.99875,30.433125 65.77625,30.23875 C65.499375,29.996875 65.170625,29.81375 64.8075,29.71 C64.5875,29.6475 64.354375,29.61375 64.11375,29.61375 C63.904375,29.61375 63.7025,29.640625 63.509375,29.690625 C63.2875,29.7475 53.673125,32.566875 53.673125,32.566875 C53.673125,32.566875 53.4025,32.645 53.1975,32.645 C52.531875,32.645 51.991875,32.105 51.991875,31.43875 C51.991875,31.216875 52.05625,31.01125 52.16125,30.8325 L52.29125,30.599375 L56.734375,22.681875 C56.8525,22.471875 57.30875,21.533125 57.399375,21.275 C57.490625,21.01625 57.540625,20.73875 57.540625,20.448125 C57.540625,19.89375 57.36125,19.38375 57.06,18.96625 C56.956875,18.823125 56.634375,18.4175 56.589375,18.34875 L51.339375,11.473125 C51.339375,11.473125 51.280625,11.3875 51.26375,11.3575 C51.176875,11.2 51.063125,10.920625 51.063125,10.66625 C51.063125,10 51.603125,9.46 52.26875,9.46 C52.34,9.46 53.044375,9.529375 53.044375,9.529375 C53.044375,9.529375 63.12375,10.553125 63.290625,10.553125 C63.718125,10.553125 64.115625,10.438125 64.47,10.2525 C64.49125,10.24125 64.513125,10.229375 64.534375,10.2175 C64.641875,10.1575 64.74375,10.091875 64.84125,10.016875 C64.8475,10.0125 64.853125,10.009375 64.86,10.005 C64.87375,9.99375 64.894375,9.974375 64.911875,9.958125 C64.99375,9.890625 65.071875,9.819375 65.145625,9.74375 C65.225,9.66125 67.583125,6.83875 68.799375,5.3625 C69.851875,4.084375 70.83625,2.878125 71.215,2.376875 C71.27375,2.29875 71.465,2.05875 71.539375,1.94625 C71.651875,1.775625 71.784375,1.5175 71.776875,1.240625 C71.7575,0.574375 71.236875,0.034375 70.570625,0.034375 C70.524375,0.034375 70.426875,0.034375 70.426875,0.034375 L44.920625,0.034375 C43.52625,0.034375 42.385,1.175 42.385,2.57 L42.385,37.191875 C42.385,38.58625 43.52625,39.7275 44.920625,39.7275 C44.920625,39.7275 71.21875,39.7275 71.223125,39.7275 C71.889375,39.7275 72.42875,39.1875 72.42875,38.52125 C72.42875,38.31375 72.404375,38.205 72.2825,37.949375" id="Fill-40-Copy"></path>
                <path d="M113.306875,1.77635684e-14 L104.523125,1.77635684e-14 C103.12875,1.77635684e-14 101.98875,1.140625 101.99,2.535 L101.999375,13.164375 L101.999375,13.78 C101.999375,13.78 101.999375,13.976875 101.999375,14.016875 C101.999375,14.6825 101.459375,15.2225 100.79375,15.2225 C100.79,15.2225 100.78625,15.22125 100.7825,15.22125 C100.779375,15.22125 100.776875,15.2225 100.77375,15.2225 C100.665,15.2225 100.5625,15.20375 100.463125,15.175625 C100.455625,15.17375 100.449375,15.170625 100.4425,15.16875 C100.3825,15.150625 100.321875,15.133125 100.265625,15.106875 C100.25375,15.1025 100.225,15.08125 100.19375,15.0575 C100.061875,14.98125 99.95,14.88 99.85625,14.76125 C99.83375,14.739375 99.8075,14.714375 99.795,14.699375 C99.559375,14.421875 99.404375,14.14375 99.01125,13.58125 C96.98125,10.680625 91.314375,1.785 91.20875,1.619375 C90.574375,0.6225 89.48125,0.024375 88.32375,0.00375 C88.149375,0.000625 87.48875,1.77635684e-14 87.3425,1.77635684e-14 L78.503125,1.77635684e-14 C77.108125,1.77635684e-14 75.9675,1.140625 75.9675,2.535 L75.9675,8.901875 C75.9675,8.901875 75.9675,12.005 75.9675,12.308125 C75.9675,13.363125 76.6075,14.265 77.52,14.654375 C77.699375,14.730625 86.811875,19.42875 86.811875,19.42875 C87.695625,19.936875 87.815,20.840625 87.130625,21.510625 C86.8525,21.78375 85.225625,22.296875 85.225625,22.296875 C85.225625,22.296875 77.72,25.09625 77.585,25.15 C76.6375,25.525 75.9675,26.44875 75.9675,27.529375 C75.9675,27.675 75.97125,28.24125 75.9675,28.381875 L75.9675,29.239375 L76.06,37.09125 C76.06,37.09125 76.129375,38.043125 76.28125,38.339375 C76.72,39.19375 77.48375,39.6932111 78.503125,39.6932111 L87.28625,39.6932111 C88.680625,39.6932111 89.8325,38.551875 89.845625,37.1575 C89.845625,37.1575 89.9125,26.84875 89.9125,26.7675 C89.9125,26.320625 90.15875,25.935 90.519375,25.726875 C90.54125,25.713125 90.56375,25.701875 90.58625,25.69 C90.641875,25.6625 90.82,25.6 90.851875,25.593125 C90.938125,25.57375 91.026875,25.56125 91.11875,25.56125 C91.229375,25.56125 91.33375,25.580625 91.435625,25.60875 C91.436875,25.60875 91.438125,25.609375 91.439375,25.61 C91.53625,25.636875 91.626875,25.675 91.7125,25.723125 C91.723125,25.72875 91.756875,25.746875 91.76375,25.75125 C91.95875,25.875625 92.216875,26.271875 92.219375,26.275 L92.59875,26.8325 L100.425625,37.695625 C100.519375,37.814375 100.62875,37.93 100.743125,38.04375 C101.344375,39.010625 102.375,39.608125 103.480625,39.68125 C103.695625,39.695 104.396875,39.6932111 104.523125,39.6932111 L113.306875,39.6932111 C114.70125,39.6932111 115.8425,38.551875 115.8425,37.1575 L115.8425,2.535 C115.8425,1.140625 114.70125,1.77635684e-14 113.306875,1.77635684e-14" id="Fill-41-Copy"></path>
                <path d="M40.47875,0.409375 C40.19375,0.124375 40.039375,0.034375 39.2625,0.034375 L29.801875,0.034375 C29.474375,0.034375 28.84375,0.034375 28.798125,0.034375 C28.59,0.034375 28.390625,0.06625 28.196875,0.113125 C27.323125,0.25875 26.79375,0.773125 26.055,2.261875 C26.055,2.261875 22.974375,7.75875 22.063125,9.65 C21.9225,9.941875 21.71875,10.459375 21.31625,10.706875 C21.148125,10.81 20.935,10.88125 20.665,10.88125 C20.314375,10.88125 20.056875,10.735625 19.873125,10.558125 C19.605,10.3 19.37375,9.7525 19.24,9.46625 C18.391875,7.653125 15.66875,2.29875 15.66875,2.29875 C15.080625,1.14625 14.764375,0.539375 13.935625,0.253125 C13.620625,0.114375 13.27375,0.034375 12.9075,0.034375 C12.843125,0.034375 12.26125,0.034375 11.9925,0.034375 L1.519375,0.034375 C1.45375,0.034375 1.246875,0.034375 1.20625,0.034375 C0.54,0.034375 -5.68434189e-14,0.574375 -5.68434189e-14,1.240625 C-5.68434189e-14,1.626875 0.2175,1.97125 0.33625,2.179375 C0.33625,2.179375 6.44875,11.764375 9.699375,16.829375 C10.846875,18.618125 12.251875,20.61 12.425,21.065 C12.635,21.61875 12.694375,22.1925 12.625,22.741875 C12.646875,22.930625 12.65875,23.13375 12.65875,23.365 L12.65875,37.191875 C12.65875,38.58625 13.8,39.7275 15.194375,39.7275 L25.881875,39.7275 C27.27625,39.7275 28.4175,38.58625 28.4175,37.191875 L28.4175,23.365 C28.4175,23.0775 28.4225,22.825625 28.439375,22.589375 C28.38375,21.901875 28.534375,21.22375 28.855625,20.634375 C28.935,20.48875 30.07,18.72875 31.344375,16.705625 C34.6475,11.460625 40.466875,2.1925 40.466875,2.1925 C40.56875,2.0275 40.64375,1.866875 40.6975,1.7125 C40.79375,1.46375 40.79125,1.223125 40.7907681,1.21375 C40.795,0.904375 40.628125,0.559375 40.47875,0.409375" id="Fill-42-Copy"></path>
            </g>
        </g>
    </g>
</svg>
